{"title":"Ashlyn Brooke from Ashlynn and Friends [VPSR].avi","uid":10782434,"size":329376880,"categoryP":"porn","categoryS":"other","magnet":"?xt=urn:btih:068f0525eddf8946e3e9bf2eb290bc95f505abb0&amp;dn=Ashlyn+Brooke+from+Ashlynn+and+Friends+%5BVPSR%5D.avi&amp;tr=udp%3A%2F%2Ftracker.openbittorrent.com%3A80&amp;tr=udp%3A%2F%2Fopen.demonii.com%3A1337&amp;tr=udp%3A%2F%2Ftracker.coppersurfer.tk%3A6969&amp;tr=udp%3A%2F%2Fexodus.desync.com%3A6969","seeders":2,"leechers":0,"uploader":"vpsr","files":1,"time":1408184118,"description":"Ashlyn Brooke from Ashlynn and Friends [VPSR].avi\n\n &lt;a href=&quot;\nhttp://s25.postimg.org/wokih9orj/vlcsnap_2014_08_16_09h09m13s218.png&quot; rel=&quot;nofollow&quot; target=&quot;_NEW&quot;&gt;\nhttp://s25.postimg.org/wokih9orj/vlcsnap_2014_08_16_09h09m13s218.png&lt;/a&gt;\n\n &lt;a href=&quot;\nhttp://s25.postimg.org/sgpq8inbz/Ashlyn_Brooke_from_Ashlynn_and_Friends.jpg&quot; rel=&quot;nofollow&quot; target=&quot;_NEW&quot;&gt;\nhttp://s25.postimg.org/sgpq8inbz/Ashlyn_Brooke_from_Ashlynn_and_Friends.jpg&lt;/a&gt;\n\n\nFILE INFO\n\nGeneral\nComplete name                            : Ashlyn Brooke from Ashlynn and Friends [VPSR].avi\nFormat                                   : AVI\nFormat/Info                              : Audio Video Interleave\nFile size                                : 314 MiB\nDuration                                 : 18mn 54s\nOverall bit rate                         : 2 324 Kbps\nWriting library                          : MPlayer\n\nVideo\nID                                       : 0\nFormat                                   : MPEG-4 Visual\nFormat profile                           : Simple@L1\nFormat settings, BVOP                    : No\nFormat settings, QPel                    : No\nFormat settings, GMC                     : No warppoints\nFormat settings, Matrix                  : Default (H.263)\nCodec ID                                 : DX50\nCodec ID/Hint                            : DivX 5\nDuration                                 : 18mn 54s\nBit rate                                 : 2 056 Kbps\nWidth                                    : 512 pixels\nHeight                                   : 288 pixels\nDisplay aspect ratio                     : 16:9\nFrame rate                               : 23.976 fps\nColor space                              : YUV\nChroma subsampling                       : 4:2:0\nBit depth                                : 8 bits\nScan type                                : Interlaced\nScan order                               : Top Field First\nCompression mode                         : Lossy\nBits/(Pixel*Frame)                       : 0.581\nStream size                              : 278 MiB (88%)\nWriting library                          : Lavc52.72.2\n\nAudio\nID                                       : 1\nFormat                                   : MPEG Audio\nFormat version                           : Version 1\nFormat profile                           : Layer 3\nMode                                     : Joint stereo\nMode extension                           : MS Stereo\nCodec ID                                 : 55\nCodec ID/Hint                            : MP3\nDuration                                 : 18mn 54s\nBit rate mode                            : Constant\nBit rate                                 : 256 Kbps\nChannel(s)                               : 2 channels\nSampling rate                            : 44.1 KHz\nCompression mode                         : Lossy\nStream size                              : 34.6 MiB (11%)\nAlignment                                : Aligned on interleaves\nInterleave, duration                     : 26 ms (0.63 video frame)\nInterleave, preload duration             : 809 ms\n\n\n","torrent":{"xt":"urn:btih:068f0525eddf8946e3e9bf2eb290bc95f505abb0","amp;dn":"Ashlyn+Brooke+from+Ashlynn+and+Friends+%5BVPSR%5D.avi","amp;tr":["udp%3A%2F%2Ftracker.openbittorrent.com%3A80","udp%3A%2F%2Fopen.demonii.com%3A1337","udp%3A%2F%2Ftracker.coppersurfer.tk%3A6969","udp%3A%2F%2Fexodus.desync.com%3A6969"],"infoHash":"068f0525eddf8946e3e9bf2eb290bc95f505abb0","infoHashBuffer":{"type":"Buffer","data":[6,143,5,37,237,223,137,70,227,233,191,46,178,144,188,149,245,5,171,176]},"announce":[],"urlList":[]}}